<?xml version="1.0" encoding="utf-8"?>
<!-- Generator: Adobe Illustrator 27.0.0, SVG Export Plug-In . SVG Version: 6.00 Build 0)  -->
<svg version="1.1" id="Layer_1" xmlns="http://www.w3.org/2000/svg" xmlns:xlink="http://www.w3.org/1999/xlink" x="0px" y="0px"
	 viewBox="0 0 1080 1080" style="enable-background:new 0 0 1080 1080;" xml:space="preserve">
<style type="text/css">
	.st0{fill:#3FA9F5;}
</style>
<path d="M571.9,356.8l-7.5,12.9c2.2-3.9,4.5-7.8,6.7-11.7c0.2-0.4,0.4-0.7,0.5-1C571.7,356.9,571.8,356.9,571.9,356.8z"/>
<path d="M564.4,369.7c-3.6,6.3-7.2,12.6-10.8,18.8l0,0L564.4,369.7z"/>
<path d="M894,847.5h-1.9c-79.5,0.2-158.9,0.4-238.4,0.8c-2.6,0-4-0.8-5.3-3.1c-14.9-26.1-29.9-52.2-45-78.3h-0.2l-11.9-20.7
	c-1.9-3.4,0.5-7.6,4.4-7.6h66.9c6,0,11.4,3.6,13.8,9.1l8.3,19.2l0,0H649c-2.8,0-4.6,3-3.2,5.5c7.5,13.1,15,26.2,22.6,39.2
	c0.6,1,2.1,2,3.2,2c54.5,0.1,109,0.1,163.5,0.1h0c0.9,0,1.5-1,1-1.8c-78.1-136-156.1-271.7-234.2-407.6l-9.3-14.6
	c-0.3,0-0.6,0.2-0.8,0.5c-0.3,0.4-0.5,0.8-0.7,1.2c-52.5,91.4-105.1,182.9-157.5,274.3c-0.8,1.4-1.1,3.5-0.8,5.2
	c2,11.2-1,20.6-10,27.6c-9.1,7.1-19.3,8-29.5,2.6c-10.1-5.3-14.8-14.2-14.5-25.5c0.3-11.8,9.6-22.5,21.2-24.8
	c2.2-0.4,3.6-1.3,4.7-3.4c49.5-86.3,99-172.7,148.6-258.9c3.6-6.3,7.2-12.6,10.8-18.8l7.4-12.9l0,0l15.4-26.7
	c2.1-3.6,4.1-6.6,6.3-9.2l37.6,65.8c2.7,4.6,5.3,9.3,8,13.9C724.4,548.9,809.6,697.2,895,845.7C895.5,846.5,894.9,847.5,894,847.5z
	 M405.4,658.5c-10.5,0-19,8.5-19,19s8.5,19,19,19s19-8.5,19-19S415.9,658.5,405.4,658.5z"/>
<path class="st0" d="M745.8,759.5c-1.2,13-13,23.6-26.4,23.9c-13.8,0.3-25.8-9.6-27.5-23.2c-0.4-3.2,0.2-6.6,0.2-9.9
	c0-1.5,0-3.2-0.7-4.4c-31.8-55.7-63.6-111.4-95.5-167.1l-1.3-2.3c-0.8,1.2-1.4,2.1-2,3c-53.1,88.1-106.2,176.2-159.3,264.4
	c-1.6,2.7-3.3,3.7-6.5,3.7c-79.3-0.1-158.5-0.1-237.8-0.1h-4.2c110.9-193,221.5-385.6,332.4-578.6l20.5-35.7c1.2-2,4.1-2,5.3,0
	c13.5,23.5,27,46.9,40.4,70.4l7.3,11.5L571,349.5l-27.1-42.6c-2.2-3.5-7.3-3.3-9.3,0.2c-97,168.8-193.8,337.4-290.8,506.3
	c1.2,0.1,2.1,0.2,2.9,0.2c54.2,0,108.4,0,162.6,0.1c2.4,0,3.2-1.1,4.2-2.8c52.5-87.2,105.1-174.5,157.6-261.7
	c7.5-12.4,14.9-24.8,22.4-37.2l1.8-3c2.6,4.5,5,8.6,7.4,12.8c38.8,67.8,77.6,135.6,116.4,203.5c1.3,2.3,2.8,3.6,5.5,4.1
	C738.3,732.2,747.2,745,745.8,759.5z M718.4,737.5c-10.5,0-19,8.5-19,19s8.5,19,19,19s19-8.5,19-19S728.9,737.5,718.4,737.5z"/>
<path d="M639.3,400.6l-0.1,0.1c-2.7-4.6-5.3-9.3-8-13.9l-37.6-65.8c-2.2,2.6-4.2,5.6-6.3,9.2l-15.4,26.7l0,0l-0.1-0.1l21.4-36.9
	L639.3,400.6z"/>
</svg>
